<svg baseProfile="full" height="480" version="1.1" width="850" xmlns="http://www.w3.org/2000/svg" xmlns:ev="http://www.w3.org/2001/xml-events" xmlns:xlink="http://www.w3.org/1999/xlink"><defs><style type="text/css"><![CDATA[.background path {fill: #808080; fill-opacity: 0}.background path:nth-child(odd) {fill-opacity: .1}.axes {font-size: 14px}.x-axis .tick .lab {font-weight: bold; dominant-baseline: hanging}.axes, .tree {font-size: 14px; text-anchor: middle}.axes line, .edge {stroke: black; fill: none}.axes .ax-skip {stroke-dasharray: 4}.y-axis .grid {stroke: #FAFAFA}.node > .sym {fill: black; stroke: none}.site > .sym {stroke: black}.mut text {fill: red; font-style: italic}.mut.extra text {fill: hotpink}.mut line {fill: none; stroke: none}.mut .sym {fill: none; stroke: red}.mut.extra .sym {stroke: hotpink}.node .mut .sym {stroke-width: 1.5px}.tree text, .tree-sequence text {dominant-baseline: central}.plotbox .lab.lft {text-anchor: end}.plotbox .lab.rgt {text-anchor: start}.node > .lab {font-size: 70%}.leaf > .lab {font-size: 100%; text-anchor: start; transform: rotate(90deg) translate(-70px, -10px)}]]></style></defs><g class="tree t0"><g class="plotbox"><g class="c2 node n15222 root" transform="translate(401.549 26.8)"><g class="a15222 c2 node n14836" transform="translate(-182.027 26.3375)"><g class="a14836 leaf node n108 sample" transform="translate(62.5368 395.062)"><path class="edge" d="M 0 0 V -395.062 H -62.5368" /><rect class="sym" height="6" width="6" x="-3" y="-3" /><text class="lab" transform="translate(0 11)">068_jm0619</text></g><g class="a14836 c2 node n14273" transform="translate(-62.5368 105.35)"><g class="a14273 c2 node n13486" transform="translate(-53.6029 158.025)"><g class="a13486 leaf node n96 sample" transform="translate(35.7353 131.688)"><path class="edge" d="M 0 0 V -131.688 H -35.7353" /><rect class="sym" height="6" width="6" x="-3" y="-3" /><text class="lab" transform="translate(0 11)">067_jm0121</text></g><g class="a13486 c2 node n13220" transform="translate(-35.7353 52.675)"><g class="a13220 leaf node n92 sample" transform="translate(-23.8235 79.0125)"><path class="edge" d="M 0 0 V -79.0125 H 23.8235" /><rect class="sym" height="6" width="6" x="-3" y="-3" /><text class="lab" transform="translate(0 11)">064_jm1658</text></g><g class="a13220 leaf node n94 sample" transform="translate(23.8235 79.0125)"><path class="edge" d="M 0 0 V -79.0125 H -23.8235" /><rect class="sym" height="6" width="6" x="-3" y="-3" /><text class="lab" transform="translate(0 11)">067_jm0089</text></g><path class="edge" d="M 0 0 V -52.675 H 35.7353" /><circle class="sym" cx="0" cy="0" r="3" /><text class="lab lft" transform="translate(-3 -7.0)">13220</text></g><path class="edge" d="M 0 0 V -158.025 H 53.6029" /><circle class="sym" cx="0" cy="0" r="3" /><text class="lab lft" transform="translate(-3 -7.0)">13486</text></g><g class="a14273 c2 node n14544" transform="translate(53.6029 79.0125)"><g class="a14544 leaf node n102 sample" transform="translate(-23.8235 210.7)"><path class="edge" d="M 0 0 V -210.7 H 23.8235" /><rect class="sym" height="6" width="6" x="-3" y="-3" /><text class="lab" transform="translate(0 11)">067_jm0916</text></g><g class="a14544 leaf node n104 sample" transform="translate(23.8235 210.7)"><path class="edge" d="M 0 0 V -210.7 H -23.8235" /><rect class="sym" height="6" width="6" x="-3" y="-3" /><text class="lab" transform="translate(0 11)">068_jm0058</text></g><path class="edge" d="M 0 0 V -79.0125 H -53.6029" /><circle class="sym" cx="0" cy="0" r="3" /><text class="lab rgt" transform="translate(3 -7.0)">14544</text></g><path class="edge" d="M 0 0 V -105.35 H 62.5368" /><circle class="sym" cx="0" cy="0" r="3" /><text class="lab lft" transform="translate(-3 -7.0)">14273</text></g><path class="edge" d="M 0 0 V -26.3375 H 182.027" /><circle class="sym" cx="0" cy="0" r="3" /><text class="lab lft" transform="translate(-3 -7.0)">14836</text></g><g class="a15222 c2 node n21564" transform="translate(182.027 52.675)"><g class="a21564 c2 node n17336" transform="translate(-176.443 52.675)"><g class="a17336 c2 node n15489" transform="translate(-53.6029 289.712)"><g class="a15489 leaf node n112 sample" transform="translate(-23.8235 26.3375)"><path class="edge" d="M 0 0 V -26.3375 H 23.8235" /><rect class="sym" height="6" width="6" x="-3" y="-3" /><text class="lab" transform="translate(0 11)">077_jm0086</text></g><g class="a15489 leaf node n116 sample" transform="translate(23.8235 26.3375)"><path class="edge" d="M 0 0 V -26.3375 H -23.8235" /><rect class="sym" height="6" width="6" x="-3" y="-3" /><text class="lab" transform="translate(0 11)">077_jm1192</text></g><path class="edge" d="M 0 0 V -289.712 H 53.6029" /><circle class="sym" cx="0" cy="0" r="3" /><text class="lab lft" transform="translate(-3 -7.0)">15489</text></g><g class="a17336 c2 node n17671" transform="translate(53.6029 79.0125)"><g class="a17671 leaf node n146 sample" transform="translate(-35.7353 237.037)"><path class="edge" d="M 0 0 V -237.037 H 35.7353" /><rect class="sym" height="6" width="6" x="-3" y="-3" /><text class="lab" transform="translate(0 11)">108_jm1660</text></g><g class="a17671 c2 node n21562" transform="translate(35.7353 79.0125)"><g class="a21562 leaf node n198 sample" transform="translate(-23.8235 158.025)"><path class="edge" d="M 0 0 V -158.025 H 23.8235" /><rect class="sym" height="6" width="6" x="-3" y="-3" /><text class="lab" transform="translate(0 11)">247_jm0135</text></g><g class="a21562 leaf node n200 sample" transform="translate(23.8235 158.025)"><path class="edge" d="M 0 0 V -158.025 H -23.8235" /><rect class="sym" height="6" width="6" x="-3" y="-3" /><text class="lab" transform="translate(0 11)">247_jm1240</text></g><path class="edge" d="M 0 0 V -79.0125 H -35.7353" /><circle class="sym" cx="0" cy="0" r="3" /><text class="lab rgt" transform="translate(3 -7.0)">21562</text></g><path class="edge" d="M 0 0 V -79.0125 H -53.6029" /><circle class="sym" cx="0" cy="0" r="3" /><text class="lab rgt" transform="translate(3 -7.0)">17671</text></g><path class="edge" d="M 0 0 V -52.675 H 176.443" /><circle class="sym" cx="0" cy="0" r="3" /><text class="lab lft" transform="translate(-3 -7.0)">17336</text></g><g class="a21564 c2 node n25617" transform="translate(176.443 26.3375)"><g class="a25617 leaf node n240 sample" transform="translate(46.1581 342.387)"><path class="edge" d="M 0 0 V -342.387 H -46.1581" /><rect class="sym" height="6" width="6" x="-3" y="-3" /><text class="lab" transform="translate(0 11)">367_jm0575</text></g><g class="a25617 c2 node n23676" transform="translate(-46.1581 79.0125)"><g class="a23676 leaf node n238 sample" transform="translate(44.6691 263.375)"><path class="edge" d="M 0 0 V -263.375 H -44.6691" /><rect class="sym" height="6" width="6" x="-3" y="-3" /><text class="lab" transform="translate(0 11)">367_jm0439</text></g><g class="a23676 c2 node n23028" transform="translate(-44.6691 79.0125)"><g class="a23028 leaf node n214 sample" transform="translate(41.6912 184.363)"><path class="edge" d="M 0 0 V -184.363 H -41.6912" /><rect class="sym" height="6" width="6" x="-3" y="-3" /><text class="lab" transform="translate(0 11)">358_jm0672</text></g><g class="a23028 c2 node n22712" transform="translate(-41.6912 79.0125)"><g class="a22712 leaf node n212 sample" transform="translate(35.7353 105.35)"><path class="edge" d="M 0 0 V -105.35 H -35.7353" /><rect class="sym" height="6" width="6" x="-3" y="-3" /><text class="lab" transform="translate(0 11)">358_jm0548</text></g><g class="a22712 c2 node n21738" transform="translate(-35.7353 52.675)"><g class="a21738 leaf node n202 sample" transform="translate(-23.8235 52.675)"><path class="edge" d="M 0 0 V -52.675 H 23.8235" /><rect class="sym" height="6" width="6" x="-3" y="-3" /><text class="lab" transform="translate(0 11)">259_jm0599</text></g><g class="a21738 leaf node n204 sample" transform="translate(23.8235 52.675)"><path class="edge" d="M 0 0 V -52.675 H -23.8235" /><rect class="sym" height="6" width="6" x="-3" y="-3" /><text class="lab" transform="translate(0 11)">259_jm0908</text></g><path class="edge" d="M 0 0 V -52.675 H 35.7353" /><circle class="sym" cx="0" cy="0" r="3" /><text class="lab lft" transform="translate(-3 -7.0)">21738</text></g><path class="edge" d="M 0 0 V -79.0125 H 41.6912" /><circle class="sym" cx="0" cy="0" r="3" /><text class="lab lft" transform="translate(-3 -7.0)">22712</text></g><path class="edge" d="M 0 0 V -79.0125 H 44.6691" /><circle class="sym" cx="0" cy="0" r="3" /><text class="lab lft" transform="translate(-3 -7.0)">23028</text></g><path class="edge" d="M 0 0 V -79.0125 H 46.1581" /><circle class="sym" cx="0" cy="0" r="3" /><text class="lab lft" transform="translate(-3 -7.0)">23676</text></g><path class="edge" d="M 0 0 V -26.3375 H -176.443" /><circle class="sym" cx="0" cy="0" r="3" /><text class="lab rgt" transform="translate(3 -7.0)">25617</text></g><path class="edge" d="M 0 0 V -52.675 H -182.027" /><circle class="sym" cx="0" cy="0" r="3" /><text class="lab rgt" transform="translate(3 -7.0)">21564</text></g><circle class="sym" cx="0" cy="0" r="3" /><text class="lab" transform="translate(0 -11)">15222</text></g></g></g></svg>